<svg width="182" height="182" viewBox="0 0 182 182" fill="none" xmlns="http://www.w3.org/2000/svg">
<rect width="182" height="182" rx="8" fill="#EEEEEE"/>
<path d="M85.0406 30.56C92.0735 44.3938 70.4273 53.7897 60.4967 43.4129C56.3586 38.9922 58.2619 30.4491 68.2991 25.8066C73.3222 23.4299 80.355 21.2692 85.0406 30.56Z" fill="black"/>
<path d="M129.313 24.4732C136.964 39.5323 113.388 49.7641 102.581 38.4662C98.0763 33.6474 100.145 24.3567 111.085 19.2991C116.549 16.7092 124.204 14.3637 129.313 24.4732Z" fill="black"/>
<path fill-rule="evenodd" clip-rule="evenodd" d="M84.0375 153.205C100.051 154.964 116.718 150.168 123.156 140.264C128.6 131.954 124.145 129.077 117.873 135.786C104.671 150.33 90.9727 143.777 85.1978 129.077L86.6837 128.599C114.572 117.892 132.066 88.8148 121.01 72.357C105.823 49.6674 58.2947 69.9575 52.3511 101.756C46.9048 131.155 61.0978 150.808 84.0375 153.205ZM101.205 73.9575C105.991 81.3066 100.216 107.351 82.8857 119.175C82.3914 115.496 82.3914 111.504 82.7199 107.351C86.186 78.2703 96.0901 66.2901 101.205 73.9575Z" fill="black"/>
</svg>
